<svg id="Layer_2" xmlns="http://www.w3.org/2000/svg" viewBox="0 0 24 24">
  <defs>
    <style>
      .cls-1{fill:#fff3}
    </style>
  </defs>
  <path d="M3.64 2.1c.09 0 .16-.03.23-.02l.55.07c.49.09.93.08 1.41-.16a7.16 7.16 0 0 1 2.43-.59 36.3 36.3 0 0 1 6.34-.12c1.2.07 2.41.19 3.61.31.6.06 1.2.19 1.8.29.17.03.32.1.35.29.03.18-.05.3-.19.42-.58.48-.79 1.14-.85 1.86-.02.28.02.55-.07.84-.1.3-.02.65-.02.98h.06v-.89h.08v1.14l-.02 9.04c0 1.24 0 2.47-.02 3.71 0 .6-.13 1.19-.44 1.75l-.26-.12.27-.74c.16-.47.13-.95.12-1.43 0-.15-.11-.16-.21-.16h-.85v-.07l.85-.05c.17 0 .24-.07.23-.24v-.51c.01-.18-.06-.25-.24-.25-.81 0-1.61-.03-2.42-.04h-.11v-.07h1.64c.29 0 .58-.02.87 0 .23 0 .3-.08.29-.3a4 4 0 0 1 0-.49c0-.16-.06-.22-.22-.22l-1.27-.02h-.23v-.08h1.36c.36 0 .36 0 .36-.35v-.4c.02-.2-.07-.26-.25-.26-.69 0-1.38-.03-2.07-.04h-.44v-.09h2.42c.35 0 .36 0 .35-.36 0-.78.09-.63-.64-.66h-.64v-.09h.71c.58 0 .58-.01.58-.58 0-.45.05-.42-.41-.43l-1.84-.03-.23-.01v-.06h.94l1.31-.01c.19 0 .27-.07.26-.27a4.34 4.34 0 0 1 0-.51c0-.17-.06-.24-.23-.24h-1.38v-.09l.49-.02.89-.02c.17 0 .25-.06.24-.23v-.53c0-.17-.06-.24-.23-.24l-1.82-.02h-.99v-.07h.26l2.49-.03c.31 0 .3 0 .3-.31V8.73l-.02-.24-.36.09c-1.23.29-2.49.37-3.74.45-2.39.15-4.78.11-7.17-.08-.88-.07-1.76-.24-2.63-.38-.23-.04-.21.08-.21.22l.04 4.31c0 .97.02 1.94.04 2.91 0 .13-.03.21-.15.29-.21.14-.16.97.04 1.14.06.05.11.15.11.24.02.58.02 1.17.05 1.75a3 3 0 0 0 1.15 2.33c.45.34.96.49 1.51.5l8.24.1c.54 0 1.06-.08 1.55-.32.07-.03.21.07.32.11v.08c-.13.07-.26.15-.4.21-.54.26-1.11.29-1.69.3-2.66.04-5.32.08-7.97.1a3.24 3.24 0 0 1-3.1-2.47c-.17-.69-.14-1.38-.15-2.07v-1.69c0-.1.04-.21.06-.3-.02-.12-.05-.23-.05-.35 0-2.04 0-4.09.02-6.13l.06-4.35c0-.41.04-.83.01-1.24a3 3 0 0 0-.85-1.84l-.12-.13-.04-.11Zm.54.23.03.11c.59.74.8 1.59.75 2.53-.04.87-.01 1.75-.02 2.62 0 .14.05.19.19.15l.5-.11c1.27-.22 2.55-.28 3.83-.32 2.33-.08 4.65-.06 6.97.12.73.06 1.46.16 2.18.28.5.09.49.12.48-.38-.01-.74 0-1.48-.06-2.22-.07-.85 0-1.64.5-2.36.02-.03.02-.08.05-.16-5.15.39-10.27.41-15.4-.28Zm.8 5.74v.1c.15.05.3.11.45.13.98.11 1.95.25 2.93.32 2.11.15 4.23.13 6.35.05 1.31-.05 2.62-.08 3.91-.36.13-.03.26-.09.38-.14v-.1c-.29-.07-.57-.16-.86-.2a34.95 34.95 0 0 0-4.34-.36c-2.66-.09-5.31 0-7.95.36-.3.04-.58.14-.87.21ZM19.9 2.29l.02-.09c-.06-.02-.11-.05-.17-.06-.58-.09-1.17-.2-1.76-.27a44.2 44.2 0 0 0-9.48-.2c-.87.09-1.72.3-2.58.45-.08.01-.14.07-.21.1l.02.07c4.72.45 9.44.38 14.17 0Z"/>
  <path d="M5.76 12.46v2.59c.01 1.3.02 2.6.06 3.9.03.83.3 1.57.95 2.12.45.38.98.54 1.56.55l3.15.03c.04 0 .07 0 .12.03-.03 0-.06.03-.08.03-1.14 0-2.28.04-3.42 0a2.34 2.34 0 0 1-2.14-1.49 3.36 3.36 0 0 1-.29-1.36l.01-2.62v-3.79h.05Z"/>
  <path d="M18.51 21.17s.11.06.13.11c.01.04-.06.11-.09.17l-.19.31-.14-.22.29-.37Z"/>
  <path d="M5.01 16.31v.97c-.16-.16-.17-.77 0-.97Z"/>
  <path class="cls-1" d="M4.18 2.33a74.1 74.1 0 0 0 15.4.28c-.02.08-.02.13-.05.16a3.48 3.48 0 0 0-.5 2.36c.06.74.04 1.48.06 2.22 0 .5.01.47-.48.38-.72-.13-1.45-.23-2.18-.28-2.32-.18-4.65-.2-6.97-.12-1.28.04-2.56.1-3.83.32l-.5.11c-.13.03-.19 0-.19-.15 0-.87-.03-1.75.02-2.62a3.59 3.59 0 0 0-.75-2.53l-.03-.11Z"/>
  <path class="cls-1" d="M4.99 8.07c.29-.07.58-.16.87-.21 2.64-.37 5.29-.45 7.95-.36 1.45.05 2.9.13 4.34.36.29.04.57.13.85.2v.1c-.12.05-.24.11-.37.14-1.29.29-2.6.32-3.91.36-2.12.08-4.24.1-6.35-.05-.98-.07-1.96-.2-2.93-.32-.15-.02-.3-.09-.45-.13v-.1Z"/>
  <path class="cls-1" d="M19.9 2.29a78.9 78.9 0 0 1-14.17 0l-.02-.07c.07-.03.14-.09.21-.1.86-.16 1.71-.37 2.58-.45 3.17-.32 6.33-.16 9.48.2.59.07 1.17.17 1.76.27.06 0 .11.04.17.06l-.02.09Z"/>
</svg>
